<svg xmlns="http://www.w3.org/2000/svg" xmlns:xlink="http://www.w3.org/1999/xlink" version="1.1" width="612" height="792" viewBox="0 0 612 792">
<defs>
<clipPath id="clip_0">
<path transform="matrix(1,0,0,-1,0,792)" d="M14.173 14.173H597.82699V777.82699H14.173Z"/>
</clipPath>
<clipPath id="clip_1">
<path transform="matrix(1,0,0,-1,0,792)" d="M14.173 777.827H597.82699V777.827H14.173Z"/>
</clipPath>
<clipPath id="clip_2">
<path transform="matrix(1,0,0,-1,0,792)" d="M14.173 777.827H597.82699V777.827H14.173Z"/>
</clipPath>
<clipPath id="clip_3">
<path transform="matrix(1,0,0,-1,0,792)" d="M14.173 777.827H597.82699V777.827H14.173Z"/>
</clipPath>
<clipPath id="clip_4">
<path transform="matrix(1,0,0,-1,0,792)" d="M14.173 777.827H597.82699V777.827H14.173Z"/>
</clipPath>
<clipPath id="clip_5">
<path transform="matrix(1,0,0,-1,0,792)" d="M14.173 655.298V654.298H597.827V655.298 656.798H14.173"/>
</clipPath>
<clipPath id="clip_6">
<path transform="matrix(1,0,0,-1,0,792)" d="M14.173 563.36V562.36H597.827V563.36 564.86H14.173"/>
</clipPath>
<clipPath id="clip_7">
<path transform="matrix(1,0,0,-1,0,792)" d="M14.173 187.844V186.844H597.827V187.844 189.344H14.173"/>
</clipPath>
<clipPath id="clip_8">
<path transform="matrix(1,0,0,-1,0,792)" d="M14.173 77.714H597.82699V77.714H14.173Z"/>
</clipPath>
<clipPath id="clip_9">
<path transform="matrix(1,0,0,-1,0,792)" d="M14.173 14.173H597.82699V14.173H14.173Z"/>
</clipPath>
<clipPath id="clip_10">
<path transform="matrix(1,0,0,-1,0,792)" d="M14.173 14.173H597.82699V14.173H14.173Z"/>
</clipPath>
<clipPath id="clip_11">
<path transform="matrix(1,0,0,-1,0,792)" d="M14.173 14.173H597.82699V14.173H14.173Z"/>
</clipPath>
<clipPath id="clip_12">
<path transform="matrix(1,0,0,-1,0,792)" d="M14.173 14.173H597.82699V14.173H14.173Z"/>
</clipPath>
<clipPath id="clip_13">
<path transform="matrix(1,0,0,-1,0,792)" d="M14.173 14.173H597.82699V14.173H14.173Z"/>
</clipPath>
</defs>
<path transform="matrix(1,0,0,-1,0,792)" d="M14.173 14.173H597.82699V777.82699H14.173Z" fill="#ffffff"/>
<path transform="matrix(1,0,0,-1,0,792)" d="M14.173 14.173H597.82699V777.82699H14.173Z" fill="#ffffff"/>
<g clip-path="url(#clip_0)">
<g clip-path="url(#clip_1)">
</g>
<g clip-path="url(#clip_2)">
</g>
<g clip-path="url(#clip_3)">
</g>
<g clip-path="url(#clip_4)">
</g>
<text xml:space="preserve" transform="matrix(1 0 -0 1 0 792)" font-size="22.5" font-family="Times"><tspan y="-756.443" x="205.076 217.586 233.831 250.07599 266.32099 280.06849 296.31349 312.55848 318.18348 334.42848 341.92097 354.43098 370.67597 386.92097">FADHLAN HISYAM</tspan></text>
<text xml:space="preserve" transform="matrix(1 0 -0 1 0 792)" font-size="10.5" font-family="Times"><tspan y="-742.618" x="26.559 32.481 37.731 42.981 48.231 53.481 58.731 63.981 69.231 74.481 79.731 84.981 90.231 95.481">+6281286189271</tspan></text>
<text xml:space="preserve" transform="matrix(1 0 -0 1 0 792)" font-size="10.5" font-family="Times"><tspan y="-742.618" x="109.731">|</tspan></text>
<text xml:space="preserve" transform="matrix(1 0 -0 1 0 792)" font-size="10.5" font-family="Times"><tspan y="-742.618" x="120.831 124.3275 128.9895 134.2395 139.4895 142.40851 147.07051 152.32051 157.57051 160.48952 164.57402 169.82402 174.48603 182.65503 187.90503 193.15503 202.82553 208.07553 216.24454 220.90654 223.82555 226.74456 229.36956 234.03156 239.28156">fadhlanhisyam24@gmail.com</tspan></text>
<text xml:space="preserve" transform="matrix(1 0 -0 1 0 792)" font-size="10.5" font-family="Times"><tspan y="-742.618" x="256.451">|</tspan></text>
<text xml:space="preserve" transform="matrix(1 0 -0 1 0 792)" font-size="10.5" font-family="Times"><tspan y="-742.618" x="267.55 272.8 275.719 278.638 283.888 287.9725 290.8915 293.81053 296.72953 304.31053 311.8915 319.4725 322.0975 325.0165 327.93553 333.18553 338.43553 343.0975 348.3475 351.2665 356.5165 359.1415 363.8035 369.0535 377.2225 380.1415 383.06053 388.31053 391.22953 394.726 399.388 404.638 409.888 412.807 417.469 422.719 427.969 430.888 434.9725 440.2225 444.8845">https://www.linkedin.com/in/fadhlanhisyam</tspan></text>
<text xml:space="preserve" transform="matrix(1 0 -0 1 0 792)" font-size="10.5" font-family="Times"><tspan y="-742.618" x="462.054">|</tspan></text>
<text xml:space="preserve" transform="matrix(1 0 -0 1 0 792)" font-size="10.5" font-family="Times"><tspan y="-742.618" x="473.154 478.404 481.323 484.242 489.492 493.5765 496.4955 499.41453 502.33354 509.91453 517.49557 525.07656 527.70156 531.19808 535.86007 541.11007 546.36007 549.27908 553.94107 559.19107 561.81607 567.06607 569.98507 574.64706 577.27206 580.19107">https://www.fadhlan.biz.id</tspan></text>
<text xml:space="preserve" transform="matrix(1 0 -0 1 0 792)" font-size="10.5" font-family="Times"><tspan y="-730.144" x="248.843 255.8465 258.7655 262.85 267.512 272.762 278.012 280.637 283.262 289.6775 294.33949 299.58949 304.83949 309.50148 312.99797 317.65995 322.90995 328.15995 330.78495 333.40995 340.41346 345.07545 350.32545 353.24446 357.90644">Cisauk, Tangerang, Banten</tspan></text>
<text xml:space="preserve" transform="matrix(1 0 -0 1 0 792)" font-size="10.5" font-family="Times"><tspan y="-709.457" x="14.173 17.6695 20.2945 24.956501 33.125505 35.750505 40.412504 45.662504 48.287504 52.9495 58.1995 61.1185 66.3685 71.6185 75.703 78.622 83.284008 87.36851 90.287509 93.206508 97.86851 100.49351 105.15551 110.40551 115.65551 118.28051 123.53051 126.44951 131.69951 136.94951 139.86852 145.11852 147.74352 155.91252 161.16252 164.08153 167.00054 172.25054 176.91254 179.83155 184.49355 189.74355 192.36855 195.28755 200.53755 204.03406 209.28406 212.78057 220.94957 225.61157 228.53058 231.44959 236.69959 241.94959 244.57459 248.65909 253.90909 257.9936 260.9126 265.5746 273.7436 277.8281 280.4531 285.7031 289.1996 293.86158 299.11158 304.36158 309.02357 311.94258 316.60456 319.22956 326.81056 329.72956 332.64857 337.89857 340.52357 343.44258 348.10456 352.76655 358.01655 362.67854 366.17503 370.25953 375.50953 378.42854 383.67854 386.30354 390.38804 395.63804 398.55705 401.47605 404.39506 408.47956 411.10456 413.72956 416.64857 421.89857 424.81758 427.73658 430.65559 435.31758 438.23658 441.15559 446.40559 451.06758 453.69258 456.31758 460.97956 466.22956 471.47956 474.10456 477.02357 482.27357 486.93556 489.56056 494.22254 499.47254 502.39155 505.31056 508.22956 511.14857 516.39859 519.02359 521.94259 527.19259 529.81759 537.39859 542.64859 546.1451 551.3951 554.0201 556.9391 562.1891 564.8141 569.4761 572.1011 575.0201 579.68209 584.34408">I am an enthusiastic and highly motivated information systems graduate with leadership skills, initiative, and the ability to work in a team</tspan></text>
<text xml:space="preserve" transform="matrix(1 0 -0 1 0 792)" font-size="10.5" font-family="Times"><tspan y="-696.092" x="14.173 19.423 22.9195 28.1695 31.666 36.328 40.4125 44.496999 47.415998 52.665998 57.915998 62.577997 65.496997 68.41599 73.66599 76.29099 78.91599 85.33149 90.58149 95.83149 100.49349 103.98999 106.90899 111.57099 116.82099 121.482997 126.145 131.39499 134.01999 136.939 142.189 144.814 150.064 154.726 158.2225 161.14151 166.39151 171.64151 175.72602 178.35102 181.27002 186.52002 189.43903 194.10103 197.59754 202.84754 207.50954 210.42855 213.05355 217.71555 222.96555 228.21555 230.84055 235.50255 240.75255 243.67156 248.33356 251.83007 257.08009 261.74208 264.66108 267.28608 271.94807 276.61006 284.77906 290.02906 295.27906 299.36357 301.98857 307.23857 310.73506 315.98506 320.64704 325.89704 328.81605 333.47804 338.14 341.05903 343.97804 349.22804 354.47804 358.56254 361.18754 363.81254 371.39353 376.64353 379.56254 384.22453 386.84953 389.76853 395.01853 397.64353 402.3055 407.5555 415.72453 423.89353 429.14353 434.39353 437.31254 441.97453 446.6365 449.5555 454.2175 456.8425 464.4235 469.08549 472.0045 474.9235 477.5485 482.7985 488.0485 490.6735 495.9235 499.41999 502.339 507.589 511.08549 514.00448 516.92349 519.84249 524.50448 527.42349 532.67349 537.92349 540.54849 545.79849 549.295 554.545 558.0415 562.7035 566.78799 570.87246 573.79147 579.04147 584.29147 588.9534">professionally. Experienced in various internal and external campus organizations. Able to communicate well by prioritizing professional</tspan></text>
<text xml:space="preserve" transform="matrix(1 0 -0 1 0 792)" font-size="10.5" font-family="Times"><tspan y="-682.727" x="14.173 21.754002 27.004002 30.500502 35.750505">work.</tspan></text>
<g clip-path="url(#clip_5)">
<path transform="matrix(1,0,0,-1,0,792)" stroke-width="1.5" stroke-linecap="butt" stroke-miterlimit="10" stroke-linejoin="miter" fill="none" stroke="#000000" d="M14.173 656.048H597.827"/>
</g>
<text xml:space="preserve" transform="matrix(1 0 -0 1 0 792)" font-size="12" font-family="Times" font-weight="bold"><tspan y="-659.649" x="14.173 22.177002 30.841004 39.505006 48.169008 56.833009 64.837009 69.505008 78.841">EDUCATION</tspan></text>
<path transform="matrix(1,0,0,-1,0,792)" d="M26.713 618.446C26.713 618.927 26.515 619.405 26.175 619.745 25.835 620.086 25.357 620.284 24.876 620.284 24.395 620.284 23.917 620.086 23.576 619.745 23.236 619.405 23.038 618.927 23.038 618.446 23.038 617.965 23.236 617.487 23.576 617.147 23.917 616.807 24.395 616.609 24.876 616.609 25.357 616.609 25.835 616.807 26.175 617.147 26.515 617.487 26.713 617.965 26.713 618.446"/>
<path transform="matrix(1,0,0,-1,0,792)" stroke-width="1" stroke-linecap="butt" stroke-miterlimit="10" stroke-linejoin="miter" fill="none" stroke="#000000" d=""/>
<text xml:space="preserve" transform="matrix(1 0 -0 1 0 792)" font-size="10.5" font-family="Times"><tspan y="-615.559" x="32.173 39.754 45.004 47.923 52.585 55.503999 60.753999 65.416 70.666 73.291 77.953 83.203 91.372 93.997 96.916 101.578 106.828 112.078 116.740009 119.365009 124.615009 128.11151 132.77352 138.02352 140.94252 145.60453 150.26653 153.18553 157.84754 160.47254 168.05353 170.97254 173.89154 179.14154 181.76654 186.42855 189.05355 193.13805 196.05706 201.30706 206.55706 211.80706 214.43206 219.68206 224.34406 227.84056 230.75957 236.00957 241.25957 243.88457 249.13457 252.63108 255.25608 260.50608 263.13108 268.38108 273.04307 277.70506 281.20155 285.28605 287.91105 293.16105 298.41105 301.03605 309.20506 314.45506 319.70506 322.62406 327.87406 331.95857 334.58357 339.24555 344.49555 349.74555 352.37055 357.03254 359.65754 363.15403 366.07304 371.32304 375.98503 378.90403 381.52903 389.11003 394.94804 402.52903 405.15403 410.40403 413.9005 416.5255 421.7755 424.4005 429.6505">Obtained cum laude predicate with a study period of 3 years 10 months and a final GPA of 3.75</tspan></text>
<path transform="matrix(1,0,0,-1,0,792)" d="M26.713 605.972C26.713 606.453 26.515 606.931 26.175 607.271 25.835 607.612 25.357 607.81 24.876 607.81 24.395 607.81 23.917 607.612 23.576 607.271 23.236 606.931 23.038 606.453 23.038 605.972 23.038 605.491 23.236 605.013 23.576 604.673 23.917 604.333 24.395 604.135 24.876 604.135 25.357 604.135 25.835 604.333 26.175 604.673 26.515 605.013 26.713 605.491 26.713 605.972"/>
<path transform="matrix(1,0,0,-1,0,792)" stroke-width="1" stroke-linecap="butt" stroke-miterlimit="10" stroke-linejoin="miter" fill="none" stroke="#000000" d=""/>
<text xml:space="preserve" transform="matrix(1 0 -0 1 0 792)" font-size="10.5" font-family="Times"><tspan y="-603.085" x="32.173 39.754 45.004 47.923 52.585 55.503999 60.753999 65.416 70.666 73.291 80.872 83.497 88.747 92.2435 96.9055 102.1555 106.817508 110.90201 113.52701 116.44601 121.69601 124.32101 129.57102 133.06752 138.31752 143.56752 147.06403 151.72603 159.89504 168.06404 170.98305 176.23305 181.48305 184.10805 188.77005 191.68906 196.93906 202.18906 205.68556 208.60457 211.52358 216.77358 224.94258 227.56758 232.81758 236.31409 240.97609 245.63809 248.5571 251.4761 256.1381 261.3881 269.5571 272.1821 276.8441 282.0941 287.3441 290.84059 294.92509 299.58708 303.67158 306.29658 309.79307 316.79658 322.71858 328.64057 332.13706 334.76206 337.38706 342.63706 347.29905 350.21806 354.88005 360.13005 364.79203 368.87654 373.5385 376.1635 384.33253 388.9945 394.2445 398.9065 404.1565 408.81849 416.9875 421.64949 426.89949 429.81849 432.44349 437.69349 441.18998 445.85197 450.51396 453.43296 456.35197 461.01396 466.26396 474.43296 477.05796 480.55445 486.39247 493.97346 500.38896 503.88545 506.51045 509.13545 516.71646 521.3784 526.6284 529.2534 534.5034 537.99996 543.24996 548.49996 551.99649 556.65847 564.82748 572.99649 575.91549 581.16549">Obtained A grades in programming algorithm practicum courses (C++), database management practicum (SQL), web programming</tspan></text>
<text xml:space="preserve" transform="matrix(1 0 -0 1 0 792)" font-size="10.5" font-family="Times"><tspan y="-590.611" x="32.173 37.423 40.919504 45.5815 50.2435 53.1625 56.081499 60.743497 65.9935 74.1625 76.7875 80.284 87.865 94.280498 103.615 110.030498 112.655498 115.280498 122.284 128.122 133.95999 136.58499 139.20999 145.04799 152.62899 158.46698 161.96349 164.58849 167.21349 171.87549 177.12549 182.37549 185.00049 193.1695 198.4195 203.6695 206.5885 209.5075 214.16951 216.79451 221.45652 226.70652 231.95652 234.87552 237.79453 242.45653 247.11853 250.03754 252.95655 258.20655 263.45655 266.08155 271.33155 274.82804 280.07804 285.32804 288.82453 293.4865 301.65553 309.82453 312.74354 317.99354 323.24354 325.86854 331.11854 334.61503 339.277 343.939 346.858 349.777 354.439 359.689 367.858 370.483 373.9795 379.8175 382.7365 387.9865 390.90553 393.82453 398.4865 401.983 405.4795">practicum (HTML, CSS, PHP), and mobile application programming practicum (Flutter).</tspan></text>
<text xml:space="preserve" transform="matrix(1 0 -0 1 0 792)" font-size="10.5" font-family="Times" font-weight="bold"><tspan y="-642.794" x="14.173 21.754002 27.592003 30.511004 35.761 40.423 45.085 49.1695 52.088499 55.585 60.835 64.9195 67.5445 73.96 78.622 87.3685 93.2065 98.4565 104.294498 109.544498 115.38249 121.22049 126.47049 132.30849 134.93349 142.51448 147.76448 151.84899 154.76799 160.01799 165.85599 171.10599 174.025 176.65 184.23099 188.89299 192.3895 197.0515 201.7135 206.9635 212.8015 215.4265 223.00749 228.25749 233.50749 238.75749 244.00749 249.84549 255.09549 259.75749 263.25398">Universitas Pembangunan Nasional Veteran Yogyakarta</tspan></text>
<text xml:space="preserve" transform="matrix(1 0 -0 1 0 792)" font-size="10.5" font-family="Times" font-weight="bold"><tspan y="-642.794" x="544.749 552.33 557.58 562.83 568.08 573.33 579.168 584.418 589.08 592.57656">Yogyakarta</tspan></text>
<text xml:space="preserve" transform="matrix(1 0 -0 1 0 792)" font-size="10.5" font-family="Times" font-style="italic"><tspan y="-630.914" x="14.173 20.588501 25.838501 30.500502 35.750505 40.412504 43.3315 48.5815">Bachelor</tspan></text>
<text xml:space="preserve" transform="matrix(1 0 -0 1 0 792)" font-size="10.5" font-family="Times"><tspan y="-630.914" x="55.666 58.291 61.21 66.46"> in </tspan></text>
<text xml:space="preserve" transform="matrix(1 0 -0 1 0 792)" font-size="10.5" font-family="Times" font-style="italic"><tspan y="-630.914" x="72.085 75.5815 80.8315 83.750499 89.000499 93.085 100.666 105.916 108.835 111.754 117.004 122.254 124.879 130.129 134.791 138.8755 141.79451 146.45652 154.0375">Information Systems</tspan></text>
<text xml:space="preserve" transform="matrix(1 0 -0 1 0 792)" font-size="12" font-family="Times"><tspan y="-630.914" x="161.122 164.122 166.52199"> | </tspan></text>
<text xml:space="preserve" transform="matrix(1 0 -0 1 0 792)" font-size="10.5" font-family="Times"><tspan y="-630.914" x="169.522 177.103 182.941 190.52199 193.441">GPA: </tspan></text>
<text xml:space="preserve" transform="matrix(1 0 -0 1 0 792)" font-size="10.5" font-family="Times"><tspan y="-630.914" x="199.066 204.316 206.941 212.191">3,75</tspan></text>
<text xml:space="preserve" transform="matrix(1 0 -0 1 0 792)" font-size="12" font-family="Times"><tspan y="-630.914" x="217.441 220.441 223.777"> / </tspan></text>
<text xml:space="preserve" transform="matrix(1 0 -0 1 0 792)" font-size="10.5" font-family="Times"><tspan y="-630.914" x="226.777">4</tspan></text>
<text xml:space="preserve" transform="matrix(1 0 -0 1 0 792)" font-size="10.5" font-family="Times"><tspan y="-630.914" x="545.831 551.081 556.331 561.581">2020</tspan></text>
<text xml:space="preserve" transform="matrix(1 0 -0 1 0 792)" font-size="12" font-family="Times"><tspan y="-630.914" x="566.831 569.831 573.82699"> - </tspan></text>
<text xml:space="preserve" transform="matrix(1 0 -0 1 0 792)" font-size="10.5" font-family="Times"><tspan y="-630.914" x="576.827 582.077 587.327 592.577">2024</tspan></text>
<g clip-path="url(#clip_6)">
<path transform="matrix(1,0,0,-1,0,792)" stroke-width="1.5" stroke-linecap="butt" stroke-miterlimit="10" stroke-linejoin="miter" fill="none" stroke="#000000" d="M14.173 564.11H597.827"/>
</g>
<text xml:space="preserve" transform="matrix(1 0 -0 1 0 792)" font-size="12" font-family="Times" font-weight="bold"><tspan y="-567.711" x="14.173 26.173 35.509004 44.173006 53.509004 56.509004 64.513 73.177 80.509 88.513 97.177 101.845 109.849 118.513 127.177">WORK EXPERIENCE</tspan></text>
<path transform="matrix(1,0,0,-1,0,792)" d="M26.713 526.508C26.713 526.989 26.515 527.467 26.175 527.807 25.835 528.148 25.357 528.346 24.876 528.346 24.395 528.346 23.917 528.148 23.576 527.807 23.236 527.467 23.038 526.989 23.038 526.508 23.038 526.027 23.236 525.549 23.576 525.209 23.917 524.869 24.395 524.671 24.876 524.671 25.357 524.671 25.835 524.869 26.175 525.209 26.515 525.549 26.713 526.027 26.713 526.508"/>
<path transform="matrix(1,0,0,-1,0,792)" stroke-width="1" stroke-linecap="butt" stroke-miterlimit="10" stroke-linejoin="miter" fill="none" stroke="#000000" d=""/>
<text xml:space="preserve" transform="matrix(1 0 -0 1 0 792)" font-size="10.5" font-family="Times"><tspan y="-523.621" x="32.173 39.754 44.416 48.5005 51.4195 56.6695 61.9195 64.8385 70.0885 75.3385 77.9635 82.6255 87.8755 93.1255 95.7505 100.412509 103.909008 108.57101 113.23301 116.15201 119.07101 124.32101 129.57102 132.19602 141.53052 147.36852 156.70302 163.11852 165.74352 173.32451 177.98651 183.23651 187.32102 190.24002 193.15903 197.82103 201.90554 204.53054 209.78054 215.03054 217.94954 220.86855 223.78755 226.41255 229.33156 234.58156 239.24356 241.86856 249.44956 254.11156 259.36158 263.44609 266.36509 269.2841 273.94609 276.57109 279.49009 283.5746 286.1996 289.69609 294.35807 299.02006 304.27006 309.52006 312.14506 315.64155 320.89155 324.38804 327.01304 332.26304 336.34754 341.00953 343.63453">Designing and creating MSME websites until the website is ready for use. </tspan></text>
<path transform="matrix(1,0,0,-1,0,792)" d="M26.713 514.034C26.713 514.515 26.515 514.993 26.175 515.333 25.835 515.674 25.357 515.872 24.876 515.872 24.395 515.872 23.917 515.674 23.576 515.333 23.236 514.993 23.038 514.515 23.038 514.034 23.038 513.553 23.236 513.075 23.576 512.735 23.917 512.395 24.395 512.197 24.876 512.197 25.357 512.197 25.835 512.395 26.175 512.735 26.515 513.075 26.713 513.553 26.713 514.034"/>
<path transform="matrix(1,0,0,-1,0,792)" stroke-width="1" stroke-linecap="butt" stroke-miterlimit="10" stroke-linejoin="miter" fill="none" stroke="#000000" d=""/>
<text xml:space="preserve" transform="matrix(1 0 -0 1 0 792)" font-size="10.5" font-family="Times"><tspan y="-511.147" x="32.173 39.754 44.416 48.5005 51.4195 56.6695 61.9195 64.8385 70.0885 75.3385 77.9635 82.6255 87.8755 93.1255 95.7505 100.412509 103.909008 108.57101 113.23301 116.15201 119.07101 124.32101 129.57102 132.19602 139.77701 145.615 152.0305 154.6555 160.4935 165.7435 170.9935 175.6555 179.15201 184.40201 187.32102 191.40552 196.65552 200.15203 202.77703 208.02703 210.94603 216.19603 219.11504 223.19954 226.11855 231.36855 236.61855 239.24355 246.82454 251.48654 256.73655 260.82106 263.74006 266.65907 271.32106 273.94606 277.44255 282.69255 286.18904 288.81404 294.65205 299.31404 302.81053 307.4725 310.3915 315.6415 318.2665 323.5165 328.7665 333.4285 338.6785 346.8475 351.5095 356.7595 359.6785 362.3035 365.2225 370.4725 375.7225 380.3845 385.6345 388.5535 393.21549 396.71199 401.96199 404.58699 409.83699 414.49897 417.41798 422.07997 427.32997 431.99195 436.07646 440.73844">Designing and creating HSE Supervisor division website for Safety document inventary database.</tspan></text>
<path transform="matrix(1,0,0,-1,0,792)" d="M26.713 501.56C26.713 502.041 26.515 502.519 26.175 502.859 25.835 503.2 25.357 503.398 24.876 503.398 24.395 503.398 23.917 503.2 23.576 502.859 23.236 502.519 23.038 502.041 23.038 501.56 23.038 501.079 23.236 500.601 23.576 500.261 23.917 499.921 24.395 499.723 24.876 499.723 25.357 499.723 25.835 499.921 26.175 500.261 26.515 500.601 26.713 501.079 26.713 501.56"/>
<path transform="matrix(1,0,0,-1,0,792)" stroke-width="1" stroke-linecap="butt" stroke-miterlimit="10" stroke-linejoin="miter" fill="none" stroke="#000000" d=""/>
<text xml:space="preserve" transform="matrix(1 0 -0 1 0 792)" font-size="10.5" font-family="Times"><tspan y="-498.673" x="32.173 39.754 45.004 49.666 52.585 57.835 62.496999 65.416 70.666 75.916 78.541 81.46 86.71 91.372 93.997 99.247 104.497 108.581508 111.5005 116.7505 121.412509 125.49701 129.58152 132.20652 137.45652 140.95302 146.20302 150.86502 155.52703 159.61153 163.69603 166.32103 171.57103 175.06754 177.69254 183.53054 189.94603 192.57103 196.06754 201.31754 204.23654 208.89855 214.14855 217.64505 222.30706 226.39156 229.31056 231.93556 237.77356 241.27007 246.52007 251.77007 257.02009 261.68208 264.60108 267.52009 272.77009 275.6891 278.6081 283.8581 286.4831 289.97959 295.22959 300.47959 305.72959 310.97959 315.64158 319.72608 322.64509 327.30708 329.19709 333.2816 335.9066 343.48759 348.14958 353.39958 357.48408 360.40309 363.32209 367.98408 370.60908 373.52809 378.77809 381.40309 386.65309 390.14958 394.81156 400.06156 404.72355 408.22004 412.88203 415.80104 418.72004 423.97004 429.22004 431.84504 435.34153 440.59153 444.088 446.713 454.294 458.956 464.206 468.2905 471.2095 474.1285 478.7905 481.4155 489.5845 492.5035 497.7535 501.25 505.912 508.831 511.75 517 522.25 524.875 529.537 534.787 540.037 542.662 547.912 553.162 558.412 563.074 565.993 570.65499">Analyzing the business process of PT Integrasi Productivity Indonesia's website in preparation for website migration and updates</tspan></text>
<path transform="matrix(1,0,0,-1,0,792)" d="M26.713 489.086C26.713 489.567 26.515 490.045 26.175 490.385 25.835 490.726 25.357 490.924 24.876 490.924 24.395 490.924 23.917 490.726 23.576 490.385 23.236 490.045 23.038 489.567 23.038 489.086 23.038 488.605 23.236 488.127 23.576 487.787 23.917 487.447 24.395 487.249 24.876 487.249 25.357 487.249 25.835 487.447 26.175 487.787 26.515 488.127 26.713 488.605 26.713 489.086"/>
<path transform="matrix(1,0,0,-1,0,792)" stroke-width="1" stroke-linecap="butt" stroke-miterlimit="10" stroke-linejoin="miter" fill="none" stroke="#000000" d=""/>
<text xml:space="preserve" transform="matrix(1 0 -0 1 0 792)" font-size="10.5" font-family="Times"><tspan y="-486.199" x="32.173 39.754 44.416 48.5005 51.4195 56.6695 61.9195 64.8385 70.0885 75.3385 77.9635 81.46 86.122 91.372 96.622 99.541 103.0375 107.6995 115.8685 120.5305 125.7805 128.69951 132.78401 135.40901 138.90552 144.15552 147.65203 150.27703 156.11502 162.53052 165.15552 168.65203 173.90203 176.82103 181.48303 186.73303 190.22954 194.89154 198.97605 201.89505 204.52005 210.35805 213.85456 219.10456 224.35456 229.60456 234.26656 237.18556 240.10457 245.35457 248.27358 251.19258 256.44258 259.06758 262.56407 267.81407 273.06407 278.31407 283.56407 288.22605 292.31056 295.22956 299.89155 302.51655 310.09754 314.75953 320.00953 324.09403 327.01304 329.93205 334.59403 337.21903 341.30354 346.55354 351.2155 356.4655 359.0905 363.7525 367.837 370.462 376.8775 383.881 391.462 394.087 396.712 402.55003 405.46903 410.71903 418.30003 422.962 428.212 432.874 436.37049 439.2895 441.9145 444.5395 449.20149 454.45149 459.70149 462.32649 469.90748 473.99198 478.65397 481.27897 488.28248 492.94447 497.02897 501.69096 504.31596 509.56596 512.4849 517.1469 522.3969 525.89346 530.5554 538.7244">Designing requirements for PT Integrasi Productivity Indonesia website such as ERD, Flowchart, and Use Case diagram.</tspan></text>
<text xml:space="preserve" transform="matrix(1 0 -0 1 0 792)" font-size="10.5" font-family="Times" font-weight="bold"><tspan y="-550.856" x="14.173 20.588501 27.592001 30.217001 34.301504 40.139505 43.636 48.298 53.548 58.21 63.46 67.5445 70.4635 73.0885 79.504 84.166 89.416 95.254 101.091999 106.92999 110.42649 113.34549 118.59549 121.51449 125.01099 130.26099 134.34549 136.97049 141.055 146.89299 152.73099 157.98099 163.81899 168.48099 172.56549 175.4845 180.7345 183.3595 186.856 193.8595 196.7785 202.6165 208.4545 211.0795 217.495 222.157 227.407 233.245 239.083 243.745 247.2415 250.1605 255.4105 260.0725">PT Integrasi Produktivitas Indonesia (Link Productive)</tspan></text>
<text xml:space="preserve" transform="matrix(1 0 -0 1 0 792)" font-size="10.5" font-family="Times" font-weight="bold"><tspan y="-550.856" x="544.749 552.33 557.58 562.83 568.08 573.33 579.168 584.418 589.08 592.57656">Yogyakarta</tspan></text>
<text xml:space="preserve" transform="matrix(1 0 -0 1 0 792)" font-size="10.5" font-family="Times" font-style="italic"><tspan y="-538.976" x="14.173 22.919503 27.581503 32.831506 35.456506 43.037508 47.699506 52.361505 57.023504 59.9425 65.192508 70.442508 75.10451">Web Developer</tspan></text>
<text xml:space="preserve" transform="matrix(1 0 -0 1 0 792)" font-size="12" font-family="Times"><tspan y="-538.976" x="79.189 82.189">, </tspan></text>
<text xml:space="preserve" transform="matrix(1 0 -0 1 0 792)" font-size="10.5" font-family="Times" font-style="italic"><tspan y="-538.976" x="85.189 88.6855 93.9355 96.8545 101.5165 105.601009 110.851009 114.93551 120.18551 123.10451">Internship</tspan></text>
<text xml:space="preserve" transform="matrix(1 0 -0 1 0 792)" font-size="10.5" font-family="Times"><tspan y="-538.976" x="483.429 489.267 493.929 499.179 502.67549 507.92549 512.58749 516.084 521.334 523.959 529.209 534.459 539.709">February 2024</tspan></text>
<text xml:space="preserve" transform="matrix(1 0 -0 1 0 792)" font-size="12" font-family="Times"><tspan y="-538.976" x="544.959 547.959 551.95498"> - </tspan></text>
<text xml:space="preserve" transform="matrix(1 0 -0 1 0 792)" font-size="10.5" font-family="Times"><tspan y="-538.976" x="554.955 559.0395 564.2895 569.5395 574.2015 576.8265 582.0765 587.3265 592.5765">June 2024</tspan></text>
<path transform="matrix(1,0,0,-1,0,792)" d="M26.713 440.852C26.713 441.333 26.515 441.811 26.175 442.151 25.835 442.492 25.357 442.69 24.876 442.69 24.395 442.69 23.917 442.492 23.576 442.151 23.236 441.811 23.038 441.333 23.038 440.852 23.038 440.371 23.236 439.893 23.576 439.553 23.917 439.213 24.395 439.015 24.876 439.015 25.357 439.015 25.835 439.213 26.175 439.553 26.515 439.893 26.713 440.371 26.713 440.852"/>
<path transform="matrix(1,0,0,-1,0,792)" stroke-width="1" stroke-linecap="butt" stroke-miterlimit="10" stroke-linejoin="miter" fill="none" stroke="#000000" d=""/>
<text xml:space="preserve" transform="matrix(1 0 -0 1 0 792)" font-size="10.5" font-family="Times"><tspan y="-437.965" x="32.173 39.754 45.004 49.666 52.585 57.835 62.496999 67.159 69.784 72.702999 77.952999 82.615 85.24 90.49 95.152 99.814 105.064 109.148509 111.773509 117.023509 120.520008 123.145008 128.395 133.057 138.307 142.96901 146.46552 149.38452 157.55353 162.21553 167.46553 170.38454 173.00954 178.25954 182.34404 187.00605 190.50255 194.58705 197.21205 200.13106 205.38106 208.00606 210.92507 216.17507 220.83707 223.46207 231.04306 238.04656 240.67156 245.92156 248.84056 254.09056 257.00956 261.09407 264.01307 269.26307 274.51307 277.13807 280.63456 285.29655 290.54655 295.20854 298.70503 303.95503 306.87403 312.12403 317.37403 319.99903 324.08354 329.33354 333.41804 336.33705 340.99903 349.16804 351.79304 355.28953 359.9515 365.2015 370.4515 373.3705 376.867 381.529 389.698 394.36 399.61 402.529 406.6135 409.2385">Analyze the needs of department users in the HC division regarding system requirements. </tspan></text>
<path transform="matrix(1,0,0,-1,0,792)" d="M26.713 428.378C26.713 428.859 26.515 429.337 26.175 429.677 25.835 430.018 25.357 430.216 24.876 430.216 24.395 430.216 23.917 430.018 23.576 429.677 23.236 429.337 23.038 428.859 23.038 428.378 23.038 427.897 23.236 427.419 23.576 427.079 23.917 426.739 24.395 426.541 24.876 426.541 25.357 426.541 25.835 426.739 26.175 427.079 26.515 427.419 26.713 427.897 26.713 428.378"/>
<path transform="matrix(1,0,0,-1,0,792)" stroke-width="1" stroke-linecap="butt" stroke-miterlimit="10" stroke-linejoin="miter" fill="none" stroke="#000000" d=""/>
<text xml:space="preserve" transform="matrix(1 0 -0 1 0 792)" font-size="10.5" font-family="Times"><tspan y="-425.491" x="32.173 39.176504 42.673006 47.335004 51.997 54.916 59.578 62.203 66.2875 71.5375 75.622 78.541 83.203 91.372 93.997 99.247 104.497 109.159008 114.409008 122.578 127.240009 132.49 135.40901 140.07102 142.99002 145.90903 151.15903 156.40903 159.03403 162.53054 166.02704 168.94605 174.19605 181.77704 186.43904 191.68904 196.35105 199.84755 202.76656 205.39156 208.01656 212.67856 217.92856 223.17856 226.09757 229.01657 233.67858 238.34058 241.25959 244.17859 249.42859 254.67859 257.3036 265.4726 270.7226 275.38459 280.63459 285.88459 291.13459 293.75959 299.00959 303.0941 306.0131 311.2631 316.5131 319.1381 322.63459 325.5536 330.8036 338.9726 343.63459 346.25959 348.88459 357.0536 359.6786 364.9286 370.1786 374.2631 377.1821 382.4321 387.0941 391.1786 395.2631 397.8881 403.1381 406.63459 411.88459 416.54658 421.20857 425.29307 429.37757 432.87406 435.49906">Create system documentation (flowchart, application mockup using figma, &#x0026; business process). </tspan></text>
<path transform="matrix(1,0,0,-1,0,792)" d="M26.713 415.904C26.713 416.385 26.515 416.863 26.175 417.203 25.835 417.544 25.357 417.742 24.876 417.742 24.395 417.742 23.917 417.544 23.576 417.203 23.236 416.863 23.038 416.385 23.038 415.904 23.038 415.423 23.236 414.945 23.576 414.605 23.917 414.265 24.395 414.067 24.876 414.067 25.357 414.067 25.835 414.265 26.175 414.605 26.515 414.945 26.713 415.423 26.713 415.904"/>
<path transform="matrix(1,0,0,-1,0,792)" stroke-width="1" stroke-linecap="butt" stroke-miterlimit="10" stroke-linejoin="miter" fill="none" stroke="#000000" d=""/>
<text xml:space="preserve" transform="matrix(1 0 -0 1 0 792)" font-size="10.5" font-family="Times"><tspan y="-413.017" x="32.173 39.176504 43.8385 48.5005 53.7505 61.919504 66.581508 69.206508 73.86851 76.49351 79.412509 82.331508 86.99351 89.912509 93.99701 99.24701 104.49701 107.12201 112.37201 117.03401 119.95301 127.53401 132.19602 136.85802 142.10802 144.73302 149.98302 154.06752 158.72953 162.22603 166.31053 168.93553 173.59754 178.84754 184.09754 186.72254 190.21904 196.63454 199.25954 202.17855 207.42855 210.05355 215.30355 220.55355 225.80355 230.46555 233.96205 238.04656 240.96556 245.62757 250.87757 256.12757 258.75257 263.41456 268.07655 272.73854 277.98854 280.61354 285.86354 288.78254 294.03254 298.69453 302.191 304.816 308.3125 312.9745 318.2245 322.88648 326.38298 331.63298 334.55198 339.80198 345.05198 347.67698 350.59599 355.84599 360.50798 363.13298 368.38298 371.87947 377.12947 380.04847 384.71046 389.37245 392.29145 394.91645 400.16645 404.82844 409.49043 414.74043 419.4024 424.6524 427.2774">Become a liaison between users and IT to understand each other regarding the project needed. </tspan></text>
<path transform="matrix(1,0,0,-1,0,792)" d="M26.713 403.43C26.713 403.911 26.515 404.389 26.175 404.729 25.835 405.07 25.357 405.268 24.876 405.268 24.395 405.268 23.917 405.07 23.576 404.729 23.236 404.389 23.038 403.911 23.038 403.43 23.038 402.949 23.236 402.471 23.576 402.131 23.917 401.791 24.395 401.593 24.876 401.593 25.357 401.593 25.835 401.791 26.175 402.131 26.515 402.471 26.713 402.949 26.713 403.43"/>
<path transform="matrix(1,0,0,-1,0,792)" stroke-width="1" stroke-linecap="butt" stroke-miterlimit="10" stroke-linejoin="miter" fill="none" stroke="#000000" d=""/>
<text xml:space="preserve" transform="matrix(1 0 -0 1 0 792)" font-size="10.5" font-family="Times"><tspan y="-400.543" x="32.173 39.754 45.004 49.666 53.1625 57.824499 60.743497 65.405498 68.030498 72.115 75.034 78.530498 83.1925 85.8175 90.4795 94.564 97.189 101.851009 104.476009 107.395008 112.645008 117.895008 120.814 123.439 128.689 132.7735 137.4355 142.6855 145.3105 148.2295 153.4795 156.1045 159.60102 166.01651 168.64151 173.89151 177.38802 182.63802 185.55702 190.21903 194.88103 197.80004 200.42504 208.59404 213.25605 218.50605 223.16805 228.41805 233.08005 241.24906 245.91106 251.16106 254.08007 256.70509 261.36708 264.28608 266.91108 272.74909 279.16459 281.78959 287.6276 292.8776 301.0466 306.2966 310.9586 314.45509 317.08009 324.66108 327.58009 331.07658 335.73857 339.23506 342.15406 346.81605 349.44105 355.85655 359.35304 362.27204 365.19105 369.85304 375.10304 379.765 382.39 388.8055 394.0555 399.3055 401.9305">Operate Jira as a tool used in IT project management at PT Sumber Alfaria Trijaya Tbk. </tspan></text>
<path transform="matrix(1,0,0,-1,0,792)" d="M26.713 390.956C26.713 391.437 26.515 391.915 26.175 392.255 25.835 392.596 25.357 392.794 24.876 392.794 24.395 392.794 23.917 392.596 23.576 392.255 23.236 391.915 23.038 391.437 23.038 390.956 23.038 390.475 23.236 389.997 23.576 389.657 23.917 389.317 24.395 389.119 24.876 389.119 25.357 389.119 25.835 389.317 26.175 389.657 26.515 389.997 26.713 390.475 26.713 390.956"/>
<path transform="matrix(1,0,0,-1,0,792)" stroke-width="1" stroke-linecap="butt" stroke-miterlimit="10" stroke-linejoin="miter" fill="none" stroke="#000000" d=""/>
<text xml:space="preserve" transform="matrix(1 0 -0 1 0 792)" font-size="10.5" font-family="Times"><tspan y="-388.069" x="32.173 39.176504 44.426504 49.676504 53.173006 58.423006 61.342004 66.592 71.254009 74.173007 78.83501 81.46001 89.04101 91.96001 94.879009 100.129009 102.754009 106.2505 112.666 115.291 120.541 123.46 128.70999 131.629 135.7135 138.6325 143.8825 149.1325 151.7575 154.67652 159.92652 162.55152 167.21352 172.46352 176.54802 181.79802 185.29453 189.95653 192.58153 196.66603 201.91603 206.00054 208.91954 213.58155 221.75055 224.37555 229.62555 234.28755 238.37206 241.29106 246.54106 251.79106 254.41606 257.91258 261.40907 266.65907 274.82807 277.45307 280.37208 285.62208 290.28407 292.90907 298.15907 302.82106 307.48304 312.73304 317.39503 322.64503 327.89503 330.52003 334.60453 337.52354 342.77354 347.43553 350.06053">Coordinate with IT division to ensure system design from the backend side. </tspan></text>
<path transform="matrix(1,0,0,-1,0,792)" d="M26.713 378.482C26.713 378.963 26.515 379.441 26.175 379.781 25.835 380.122 25.357 380.32 24.876 380.32 24.395 380.32 23.917 380.122 23.576 379.781 23.236 379.441 23.038 378.963 23.038 378.482 23.038 378.001 23.236 377.523 23.576 377.183 23.917 376.843 24.395 376.645 24.876 376.645 25.357 376.645 25.835 376.843 26.175 377.183 26.515 377.523 26.713 378.001 26.713 378.482"/>
<path transform="matrix(1,0,0,-1,0,792)" stroke-width="1" stroke-linecap="butt" stroke-miterlimit="10" stroke-linejoin="miter" fill="none" stroke="#000000" d=""/>
<text xml:space="preserve" transform="matrix(1 0 -0 1 0 792)" font-size="10.5" font-family="Times"><tspan y="-375.595" x="32.173 38.5885 43.8385 47.923 53.173 56.669504 61.3315 63.9565 66.8755 72.1255 76.787509 79.412509 84.07451 89.32451 94.57451 97.49351 100.412509 105.07451 109.73651 112.65551 115.57451 120.82451 126.07451 128.69951 131.61852 136.86852 141.53052 144.44953 147.07453 152.32453 156.98653 161.07103 163.69603 168.94603 173.60803 178.27004 183.52004 186.14504 194.31404 198.97605 204.22605 208.88805 211.51305 216.76305 222.01305 224.63805 228.13455 234.55005 237.17505 240.09406 244.17856 246.80356 249.72257 254.97257 257.59757 262.25956 266.92155 271.58354 276.83354 280.33003 285.58003 290.242 295.492 300.154 304.81599 307.44099 315.02198 317.94099 320.86 326.11 328.735 331.654 336.904 341.56599 344.19099 347.68748 352.34947 357.59947 362.84947 365.76847 369.26496 373.92695 382.09596 386.75794 392.00794 394.92695 399.01145 401.63645 404.55546 409.80546 414.46745 417.38645 420.01145 425.26145 429.92344 435.17344 439.83543 442.46043 447.71043 452.3724 457.0344 462.2844 464.9094 469.57139 474.82139 478.31788 482.97987 487.64186 492.89186 495.51686 503.09785 506.01686 508.93586 514.18588 516.81088 519.72988 524.97988 529.64187 532.26687 537.51687 541.6013 546.2633 549.7598 552.3848 557.6348">Ensure the application that has been made by IT is in accordance with the requirements that have been agreed with the user by</tspan></text>
<text xml:space="preserve" transform="matrix(1 0 -0 1 0 792)" font-size="10.5" font-family="Times"><tspan y="-363.121" x="32.173 37.423 42.085 45.581499 48.500497 51.419496 56.081495 59.000494 64.25049 68.91249 71.83149 74.75049 80.00049 85.25049 87.87549 90.79449 96.04449 98.66949 101.588489 106.838489 111.50049 114.12549 121.70649 125.79099 130.45299 133.9495 136.5745 144.15549 148.81749 153.47949 158.1415 163.3915 166.3105 170.9725 176.2225 180.8845 185.54651 188.17151 194.587 199.24901 203.33351 206.25252 208.87752 212.37403 219.95502 227.53601 233.9515 237.44802 240.07302 245.32302 248.81952 254.06952 258.7315 263.3935 267.478 271.5625 274.1875">participating in the User Acceptance Test (UAT) process. </tspan></text>
<path transform="matrix(1,0,0,-1,0,792)" d="M26.713 353.534C26.713 354.015 26.515 354.493 26.175 354.833 25.835 355.174 25.357 355.372 24.876 355.372 24.395 355.372 23.917 355.174 23.576 354.833 23.236 354.493 23.038 354.015 23.038 353.534 23.038 353.053 23.236 352.575 23.576 352.235 23.917 351.895 24.395 351.697 24.876 351.697 25.357 351.697 25.835 351.895 26.175 352.235 26.515 352.575 26.713 353.053 26.713 353.534"/>
<path transform="matrix(1,0,0,-1,0,792)" stroke-width="1" stroke-linecap="butt" stroke-miterlimit="10" stroke-linejoin="miter" fill="none" stroke="#000000" d=""/>
<text xml:space="preserve" transform="matrix(1 0 -0 1 0 792)" font-size="10.5" font-family="Times"><tspan y="-350.647" x="32.173 39.754 43.8385 47.923 50.842 54.9265 57.845499 60.470499 65.7205 69.805 74.467 77.9635 82.048007 84.673007 87.592 92.842 95.467 100.129009 103.6255 108.287509 112.94951 115.86851 118.787509 124.037509 129.2875 131.9125 136.57451 141.82451 147.07451 149.99352 152.91252 157.57453 162.23653 165.15554 168.07454 173.32454 178.57454 181.19954 184.11855 192.28755 197.53755 200.45656 205.11856 213.28757 217.94957 223.19957 226.11858 230.78058 233.69959 236.61859 241.86859 247.11859 249.74359 253.8281 258.49009 263.15208 268.40208 273.06407 276.56056 279.47956 284.72956 288.81407 291.43907">Assist users in creating application implementation scenarios. </tspan></text>
<path transform="matrix(1,0,0,-1,0,792)" d="M26.713 341.06C26.713 341.541 26.515 342.019 26.175 342.359 25.835 342.7 25.357 342.898 24.876 342.898 24.395 342.898 23.917 342.7 23.576 342.359 23.236 342.019 23.038 341.541 23.038 341.06 23.038 340.579 23.236 340.101 23.576 339.761 23.917 339.421 24.395 339.223 24.876 339.223 25.357 339.223 25.835 339.421 26.175 339.761 26.515 340.101 26.713 340.579 26.713 341.06"/>
<path transform="matrix(1,0,0,-1,0,792)" stroke-width="1" stroke-linecap="butt" stroke-miterlimit="10" stroke-linejoin="miter" fill="none" stroke="#000000" d=""/>
<text xml:space="preserve" transform="matrix(1 0 -0 1 0 792)" font-size="10.5" font-family="Times"><tspan y="-338.173" x="32.173 39.754 43.8385 47.923 50.842 54.9265 57.845499 60.470499 65.7205 69.805 74.467 77.9635 82.048007 84.673007 87.592 92.842 95.467 103.636 108.886 114.136 117.055 119.974 125.224 128.7205 131.63951 136.88951 142.13951 144.76451 149.42652 154.67652 159.92652 162.84552 165.76453 170.42653 175.08853 178.00754 180.92655 186.17655 191.42655 194.05155 196.97055 205.13956 210.38956 213.30857 217.97057 226.13957 230.80158 236.05158 238.97058 243.63259 246.55159 249.4706 254.7206 259.97059 262.59559 266.68009 271.93009 274.55509 277.4741 282.7241 287.38609 290.30509 292.93009 295.8491 298.7681 301.3931 304.8896 310.1396 315.3896 319.4741 322.0991 329.68009 332.5991 335.5181 340.7681 346.0181 351.2681 354.1871 356.8121 361.4741 366.7241 371.9741 374.5991 378.6836 383.9336 388.0181 390.9371 395.5991 403.7681 406.3931 411.6431 416.8931 422.1431 426.2276 428.8526">Assist users in monitoring application implementation so that it runs without any system bugs. </tspan></text>
<path transform="matrix(1,0,0,-1,0,792)" d="M26.713 328.586C26.713 329.067 26.515 329.545 26.175 329.885 25.835 330.226 25.357 330.424 24.876 330.424 24.395 330.424 23.917 330.226 23.576 329.885 23.236 329.545 23.038 329.067 23.038 328.586 23.038 328.105 23.236 327.627 23.576 327.287 23.917 326.947 24.395 326.749 24.876 326.749 25.357 326.749 25.835 326.947 26.175 327.287 26.515 327.627 26.713 328.105 26.713 328.586"/>
<path transform="matrix(1,0,0,-1,0,792)" stroke-width="1" stroke-linecap="butt" stroke-miterlimit="10" stroke-linejoin="miter" fill="none" stroke="#000000" d=""/>
<text xml:space="preserve" transform="matrix(1 0 -0 1 0 792)" font-size="10.5" font-family="Times"><tspan y="-325.699" x="32.173 38.5885 43.8385 47.923 53.173 56.669504 61.3315 63.9565 66.8755 72.1255 76.787509 79.706508 82.331508 85.2505 90.5005 95.162509 97.787509 102.44951 107.69951 112.94951 115.86851 118.787509 123.44951 128.11151 131.03052 133.94953 139.19953 144.44953 147.07453 149.99353 154.07804 156.70304 161.95304 166.61504 171.86504 176.52704 179.44605 184.69605 189.94605 194.60805 199.85805 202.48305 205.40206 210.65206 213.27706 217.93906 223.18906 231.35807 236.60807 239.52707 244.18907 247.10808 250.02709 255.27709 260.5271 263.1521 267.8141 273.0641 278.3141 280.9391 283.8581 288.52009 293.77009 299.02009 303.68208 308.93208 313.59407 318.84407 321.46907 326.71907 331.38105 334.30006 337.21907 342.46907 347.71907 352.38105 355.30006 358.21907 363.46907 366.09407 369.59056 374.84056 378.33705 380.96205 386.21205 390.29655 394.95854 397.58354 400.50254 405.75254 408.37754 413.03953 415.95854 418.87754 421.50254 426.16453 429.08354 432.58003 437.242 445.411 450.073 453.5695 456.4885 459.1135 464.3635 467.86 472.52198 477.77198 482.43397 487.68397 492.34596 496.43046">Ensure that the application is developed to completion and launched nationally for use in all alfamart branches.</tspan></text>
<text xml:space="preserve" transform="matrix(1 0 -0 1 0 792)" font-size="10.5" font-family="Times" font-weight="bold"><tspan y="-465.2" x="14.173 20.588501 27.592001 30.217001 32.842004 38.680006 44.518007 53.264509 59.10251 63.764509 68.426509 71.051509 78.63251 81.551509 85.048007 90.298007 94.96001 97.879009 103.129009 105.754009 112.75751 117.41951 120.33851 123.83501 129.085 134.335 139.585 142.21 149.2135 155.0515 160.8895 163.5145 167.011 174.592 177.511 181.0075 186.2575 195.00402 200.25402 204.91602 208.41252">PT. Sumber Alfaria Trijaya Tbk (Alfamart)</tspan></text>
<text xml:space="preserve" transform="matrix(1 0 -0 1 0 792)" font-size="10.5" font-family="Times" font-weight="bold"><tspan y="-465.2" x="548.823 555.8265 561.0765 566.9145 572.1645 576.8265 581.48849 586.73849 592.5765">Tangerang</tspan></text>
<text xml:space="preserve" transform="matrix(1 0 -0 1 0 792)" font-size="10.5" font-family="Times" font-style="italic"><tspan y="-453.32" x="14.173 21.754002 28.757502 31.382502 36.6325 41.2945 45.378999 48.297998 52.959997 60.540998 63.165998 69.5815 74.8315 80.0815 83.000499 87.6625 91.747">HC System Analyst</tspan></text>
<text xml:space="preserve" transform="matrix(1 0 -0 1 0 792)" font-size="12" font-family="Times"><tspan y="-453.32" x="94.666 97.666">, </tspan></text>
<text xml:space="preserve" transform="matrix(1 0 -0 1 0 792)" font-size="10.5" font-family="Times" font-style="italic"><tspan y="-453.32" x="100.666 104.1625 109.4125 112.3315 116.9935 121.078 126.328 130.4125 135.6625 138.58152">Internship</tspan></text>
<text xml:space="preserve" transform="matrix(1 0 -0 1 0 792)" font-size="10.5" font-family="Times"><tspan y="-453.32" x="467.102 474.68299 479.93299 485.18299 490.43299 494.5175 497.4365 500.0615 505.3115 510.5615 515.8115">August 2023</tspan></text>
<text xml:space="preserve" transform="matrix(1 0 -0 1 0 792)" font-size="12" font-family="Times"><tspan y="-453.32" x="521.061 524.061 528.05697"> - </tspan></text>
<text xml:space="preserve" transform="matrix(1 0 -0 1 0 792)" font-size="10.5" font-family="Times"><tspan y="-453.32" x="531.057 538.638 543.3 547.962 552.62399 560.79299 566.04299 570.70498 574.2015 576.8265 582.0765 587.3265 592.5765">December 2023</tspan></text>
<path transform="matrix(1,0,0,-1,0,792)" d="M26.713 280.352C26.713 280.833 26.515 281.311 26.175 281.651 25.835 281.992 25.357 282.19 24.876 282.19 24.395 282.19 23.917 281.992 23.576 281.651 23.236 281.311 23.038 280.833 23.038 280.352 23.038 279.871 23.236 279.393 23.576 279.053 23.917 278.713 24.395 278.515 24.876 278.515 25.357 278.515 25.835 278.713 26.175 279.053 26.515 279.393 26.713 279.871 26.713 280.352"/>
<path transform="matrix(1,0,0,-1,0,792)" stroke-width="1" stroke-linecap="butt" stroke-miterlimit="10" stroke-linejoin="miter" fill="none" stroke="#000000" d=""/>
<text xml:space="preserve" transform="matrix(1 0 -0 1 0 792)" font-size="10.5" font-family="Times"><tspan y="-277.465" x="32.173 39.754 43.250505 47.912504 51.409006 54.328004 56.953004 62.203004 66.865009 69.784008 74.44601 77.07101 82.32101 87.57101 90.19601 93.115009 98.365009 103.02701 105.65201 113.82101 118.48301 123.73301 128.395 133.645 138.307 146.47602 151.13802 156.38802 159.30702 161.93202 167.18202 170.67853 173.30353 176.80004 182.05004 185.54654 190.79654 194.29305 202.46205 207.12406 210.04306 212.96207 218.21207 223.46207 226.08707 232.50257 237.16457 241.82657 247.07657 252.32657 257.57658 260.49559 265.74559 270.99559 276.24559 278.87059 282.95509 287.61708 291.11357 296.36357 299.28257 303.94456 308.60655 312.69105 315.31605 318.23506 323.48506 326.11006 333.11357 340.69456 346.53257 352.37059 359.95158 369.28608">Draft data on the management of Information Technology services in BKPSDM </tspan></text>
<path transform="matrix(1,0,0,-1,0,792)" d="M26.713 267.878C26.713 268.359 26.515 268.837 26.175 269.177 25.835 269.518 25.357 269.716 24.876 269.716 24.395 269.716 23.917 269.518 23.576 269.177 23.236 268.837 23.038 268.359 23.038 267.878 23.038 267.397 23.236 266.919 23.576 266.579 23.917 266.239 24.395 266.041 24.876 266.041 25.357 266.041 25.835 266.239 26.175 266.579 26.515 266.919 26.713 267.397 26.713 267.878"/>
<path transform="matrix(1,0,0,-1,0,792)" stroke-width="1" stroke-linecap="butt" stroke-miterlimit="10" stroke-linejoin="miter" fill="none" stroke="#000000" d=""/>
<text xml:space="preserve" transform="matrix(1 0 -0 1 0 792)" font-size="10.5" font-family="Times"><tspan y="-264.991" x="32.173 39.754 44.416 48.5005 51.4195 56.6695 61.9195 64.8385 70.0885 75.3385 77.9635 85.5445 89.629009 94.29101 97.787509 100.412509 103.909008 109.159008 112.078 116.740009 120.2365 123.733 128.395 133.057 137.71901 140.34401 145.00601 150.25601 155.50601 158.13101 165.712 169.79651 174.45851 177.95502 180.58002 186.99552 192.24552 197.49552 202.15752 205.65402 208.57303 213.23503 218.48503 223.14704 227.80904 230.43404 235.68404 239.18054 241.80554 248.80904 256.39006 262.22807 268.06608 275.64707 284.98158 287.60658 295.18757 299.84956 305.09956 309.18406 312.10307 315.02207 319.68406 322.30906 327.55906 331.05555 333.68055 341.26155 346.51155 351.76155 357.01155 361.67353 366.92353 371.5855 375.082 378.001 382.663 385.288 392.2915 395.2105 398.12953">Designing User Interface and User Experience of BKPSDM website of Yogyakarta City</tspan></text>
<path transform="matrix(1,0,0,-1,0,792)" d="M26.713 255.404C26.713 255.885 26.515 256.363 26.175 256.703 25.835 257.044 25.357 257.242 24.876 257.242 24.395 257.242 23.917 257.044 23.576 256.703 23.236 256.363 23.038 255.885 23.038 255.404 23.038 254.923 23.236 254.445 23.576 254.105 23.917 253.765 24.395 253.567 24.876 253.567 25.357 253.567 25.835 253.765 26.175 254.105 26.515 254.445 26.713 254.923 26.713 255.404"/>
<path transform="matrix(1,0,0,-1,0,792)" stroke-width="1" stroke-linecap="butt" stroke-miterlimit="10" stroke-linejoin="miter" fill="none" stroke="#000000" d=""/>
<text xml:space="preserve" transform="matrix(1 0 -0 1 0 792)" font-size="10.5" font-family="Times"><tspan y="-252.517" x="32.173 39.754 44.416 48.5005 51.4195 56.6695 61.9195 64.8385 70.0885 75.3385 77.9635 82.6255 90.7945 96.0445 98.9635 104.2135 109.4635 114.1255 118.787509 121.412509 126.662509 131.32451 134.24352 138.90552 141.53052 145.61502 148.53403 153.19603 156.11504 159.03404 163.11855 166.03755 168.95656 173.61856 177.70307 180.32807 184.99007 190.24007 195.49007 198.40908 201.32808 205.99008 210.65209 213.57109 216.4901 221.7401 226.9901 229.6151 234.8651 239.5271 244.1891 249.4391 253.5236 256.14863 260.23313 265.48313 270.1451 275.3951 278.0201 282.6821 286.7666 289.3916 292.8881 295.8071 301.0571 308.6381 313.30009 318.55009 323.21208 326.70857 329.62757 332.25257 334.87757 342.45857 347.12055 350.03956 354.70155 357.32655 363.16456 366.08357 371.33357 378.91456 381.53956 389.12055 392.03956 396.70155 401.95155 405.44804 410.11003 418.27903 420.90403 424.4005 431.9815 437.81953 445.4005 448.897 451.522 454.147 461.1505 468.7315 475.147 477.772 480.397 485.059 490.309 495.559 498.184 505.76499 509.8495 514.5115 517.1365 524.13998 528.80197 532.8864">Designing employee data statistics application needs such as flowchart, Data Flow Diagram (DFD), RAT, and Use Case</tspan></text>
<path transform="matrix(1,0,0,-1,0,792)" d="M26.713 242.93C26.713 243.411 26.515 243.889 26.175 244.229 25.835 244.57 25.357 244.768 24.876 244.768 24.395 244.768 23.917 244.57 23.576 244.229 23.236 243.889 23.038 243.411 23.038 242.93 23.038 242.449 23.236 241.971 23.576 241.631 23.917 241.291 24.395 241.093 24.876 241.093 25.357 241.093 25.835 241.291 26.175 241.631 26.515 241.971 26.713 242.449 26.713 242.93"/>
<path transform="matrix(1,0,0,-1,0,792)" stroke-width="1" stroke-linecap="butt" stroke-miterlimit="10" stroke-linejoin="miter" fill="none" stroke="#000000" d=""/>
<text xml:space="preserve" transform="matrix(1 0 -0 1 0 792)" font-size="10.5" font-family="Times"><tspan y="-240.043" x="32.173 39.754 44.416 49.666 54.328 57.246999 62.496999 67.746997 70.66599 75.91599 81.16599 83.79099 88.452999 91.077999 94.57449 99.82449 102.74349 105.66249 109.746997 112.66599 117.327999 121.99 127.24 129.86499 137.44599 142.10799 147.35799 150.85449 156.10449 160.7665 164.851 169.513 174.763 177.388 182.05 190.21901 195.46901 198.38802 203.63802 208.88802 213.55002 218.21202 220.83702 226.08702 230.74903 233.66803 238.33003 240.95503 245.03954 247.95854 252.62055 255.53955 258.45857 262.54307 265.46208 268.38108 273.04307 277.12757 279.75257 284.41456 289.66456 294.91456 297.83357 300.75257 305.41456 310.07655 312.99555 315.91456 321.16456 326.41456 329.03956 334.28956 338.37406 341.29307 346.54307 351.79307 354.41807 357.33708 362.58708 367.24906 369.87406 376.28956 380.95155 384.44804 389.11003 394.36003 399.022 401.941 404.566 410.40403 413.9005 418.5625 426.7315 431.3935 438.9745 444.2245 447.72099">Developing a fullstack web-based employee data statistics application using the Laravel Framework</tspan></text>
<path transform="matrix(1,0,0,-1,0,792)" d="M26.713 230.456C26.713 230.937 26.515 231.415 26.175 231.755 25.835 232.096 25.357 232.294 24.876 232.294 24.395 232.294 23.917 232.096 23.576 231.755 23.236 231.415 23.038 230.937 23.038 230.456 23.038 229.975 23.236 229.497 23.576 229.157 23.917 228.817 24.395 228.619 24.876 228.619 25.357 228.619 25.835 228.817 26.175 229.157 26.515 229.497 26.713 229.975 26.713 230.456"/>
<path transform="matrix(1,0,0,-1,0,792)" stroke-width="1" stroke-linecap="butt" stroke-miterlimit="10" stroke-linejoin="miter" fill="none" stroke="#000000" d=""/>
<text xml:space="preserve" transform="matrix(1 0 -0 1 0 792)" font-size="10.5" font-family="Times"><tspan y="-227.569" x="32.173 39.176504 43.8385 48.5005 53.7505 61.919504 64.8385 70.0885 75.3385 77.9635 82.6255 85.2505 92.254009 97.504009 105.673007 110.923007 116.173007 119.092 123.754009 127.2505 129.8755 137.4565 141.541 145.6255 148.54451 152.62902 155.54802 160.21002 165.46002 168.08502 175.08852 180.33852 188.50753 193.75753 198.41953 201.33853 206.00054 211.25054 215.91254 221.16254 223.78754 230.20304 234.86504 238.94954 241.86855 244.49355 247.99005 254.99355 262.57456 269.57807 275.99357 279.49006 282.11506 286.77705 292.02705 300.19606 308.36506 311.28407 314.20307 317.12208 321.78407 326.44606 329.07106 331.99006 337.24006 339.86506 344.52705 348.61155 352.69606 357.35804 361.44255 365.52705 368.15205 371.07106 376.32106 380.98304 383.60804 388.27003 393.52003 401.68904 406.93904 411.601 414.52003 419.182 424.432 429.094 433.75599 436.38099 441.63099 445.12748 447.75248 455.33348 460.58348 465.83348 471.08348 475.74546 480.99546 485.65745 489.15394 492.07295 496.73493 499.35993 506.36344 509.28245 512.2014 517.4514 520.0764 524.7384 532.9074 538.1574 541.0764 546.3264 551.5764 556.2384 560.9004 564.98489">Becoming a Computer Assisted Competency Test (CACT) committee to assess the competence of Yogyakarta City employees </tspan></text>
<path transform="matrix(1,0,0,-1,0,792)" d="M26.713 217.982C26.713 218.463 26.515 218.941 26.175 219.281 25.835 219.622 25.357 219.82 24.876 219.82 24.395 219.82 23.917 219.622 23.576 219.281 23.236 218.941 23.038 218.463 23.038 217.982 23.038 217.501 23.236 217.023 23.576 216.683 23.917 216.343 24.395 216.145 24.876 216.145 25.357 216.145 25.835 216.343 26.175 216.683 26.515 217.023 26.713 217.501 26.713 217.982"/>
<path transform="matrix(1,0,0,-1,0,792)" stroke-width="1" stroke-linecap="butt" stroke-miterlimit="10" stroke-linejoin="miter" fill="none" stroke="#000000" d=""/>
<text xml:space="preserve" transform="matrix(1 0 -0 1 0 792)" font-size="10.5" font-family="Times"><tspan y="-215.095" x="32.173 39.754 44.416 47.335 52.585 55.503999 60.753999 66.004 68.629 75.6325 83.2135 89.0515 94.889499 102.4705 111.805 114.43 119.092 127.261 132.511 135.43001 140.68001 145.93001 150.59201 155.25402 159.33852 161.96352 169.54451 174.79451 180.04451 182.66951 187.91951 192.58152 197.83152 202.49352 205.11852 210.36852 213.28752 216.78403 220.28054 223.19954 227.86154 233.11154 236.03055 238.94956 241.86856 246.53057 250.61507 253.24007 260.82109 263.74009 266.6591 271.9091 274.5341 277.4531 282.7031 287.36509 290.2841 293.78059 296.40559 299.3246 304.5746 308.07109 313.32109 316.81758 324.98658 329.64857 332.56758 335.48658 340.73658 345.98658 348.61158 351.53059 356.19258 360.85456 366.10456 371.35456 376.60456 379.52357 384.77357 390.02357 395.27357 397.89857 403.14857 407.81056 413.06056 415.97956 420.64155 425.30354">Helping BKPSDM employees who have difficulties with their information technology devices</tspan></text>
<text xml:space="preserve" transform="matrix(1 0 -0 1 0 792)" font-size="10.5" font-family="Times" font-weight="bold"><tspan y="-304.7" x="14.173 21.754002 27.004002 32.254 37.504 42.754 48.592004 53.842004 58.504 62.000505 67.2505 69.8755 76.291 80.953 85.615009 89.69951 94.94951 100.787509 106.6255 111.287509 114.206508 116.831508 122.081508 127.9195 133.7575 136.3825 144.55152 150.38951 159.13602 164.38602 170.22402 172.84902 180.43001 185.09201 189.17652 194.42652 200.26451 204.92652 209.58852 214.25052 218.33502 220.96002 228.54102 233.20302 238.45302 243.11502 246.03403 251.28403 257.12205 265.86854 270.53053 276.36854 279.86503 282.49003 290.071 295.321 299.983 305.821 310.483">Yogyakarta Personnel and Human Resources Development Agency</tspan></text>
<text xml:space="preserve" transform="matrix(1 0 -0 1 0 792)" font-size="10.5" font-family="Times" font-weight="bold"><tspan y="-304.7" x="544.749 552.33 557.58 562.83 568.08 573.33 579.168 584.418 589.08 592.57656">Yogyakarta</tspan></text>
<text xml:space="preserve" transform="matrix(1 0 -0 1 0 792)" font-size="10.5" font-family="Times" font-style="italic"><tspan y="-292.82" x="14.173 17.6695 23.507502 26.132502 33.7135 36.6325 39.5515 42.470499 47.132497 51.794496">IT Officer</tspan></text>
<text xml:space="preserve" transform="matrix(1 0 -0 1 0 792)" font-size="12" font-family="Times"><tspan y="-292.82" x="55.879 58.879">, </tspan></text>
<text xml:space="preserve" transform="matrix(1 0 -0 1 0 792)" font-size="10.5" font-family="Times" font-style="italic"><tspan y="-292.82" x="61.879 65.3755 70.6255 73.5445 78.206508 82.29101 87.54101 91.62551 96.87551 99.79451">Internship</tspan></text>
<text xml:space="preserve" transform="matrix(1 0 -0 1 0 792)" font-size="10.5" font-family="Times"><tspan y="-292.82" x="491 495.0845 500.3345 505.5845 510.2465 512.87149 518.12149 523.37149 528.62149">June 2023</tspan></text>
<text xml:space="preserve" transform="matrix(1 0 -0 1 0 792)" font-size="12" font-family="Times"><tspan y="-292.82" x="533.871 536.871 540.86697"> - </tspan></text>
<text xml:space="preserve" transform="matrix(1 0 -0 1 0 792)" font-size="10.5" font-family="Times"><tspan y="-292.82" x="543.867 551.448 556.698 561.948 567.198 571.2825 574.2015 576.8265 582.0765 587.3265 592.5765">August 2024</tspan></text>
<g clip-path="url(#clip_7)">
<path transform="matrix(1,0,0,-1,0,792)" stroke-width="1.5" stroke-linecap="butt" stroke-miterlimit="10" stroke-linejoin="miter" fill="none" stroke="#000000" d="M14.173 188.594H597.827"/>
</g>
<text xml:space="preserve" transform="matrix(1 0 -0 1 0 792)" font-size="12" font-family="Times" font-weight="bold"><tspan y="-192.195" x="14.173 23.509 32.173 41.509004 50.173006 58.837007 63.505006 71.509 80.173007 88.177 92.845 102.181">ORGANIZATION</tspan></text>
<path transform="matrix(1,0,0,-1,0,792)" d="M26.713 150.992C26.713 151.473 26.515 151.951 26.175 152.291 25.835 152.632 25.357 152.83 24.876 152.83 24.395 152.83 23.917 152.632 23.576 152.291 23.236 151.951 23.038 151.473 23.038 150.992 23.038 150.511 23.236 150.033 23.576 149.693 23.917 149.353 24.395 149.155 24.876 149.155 25.357 149.155 25.835 149.353 26.175 149.693 26.515 150.033 26.713 150.511 26.713 150.992"/>
<path transform="matrix(1,0,0,-1,0,792)" stroke-width="1" stroke-linecap="butt" stroke-miterlimit="10" stroke-linejoin="miter" fill="none" stroke="#000000" d=""/>
<text xml:space="preserve" transform="matrix(1 0 -0 1 0 792)" font-size="10.5" font-family="Times"><tspan y="-148.105" x="32.173 39.176504 42.673006 47.335004 51.997 54.916 59.578 62.203 66.865 72.115 77.365 79.99 88.159 92.821 98.071 102.733 107.983 112.645008 115.270008 118.189 123.439 128.101 130.726 135.388 139.4725 143.557 148.807 153.46901 156.38802 161.05002 163.96903 166.88803 172.13803 177.38803 180.01303 187.59403 192.25603 197.50603 201.59053 204.50954 207.42855 212.09055">Create and manage the association website </tspan></text>
<path transform="matrix(1,0,0,-1,0,792)" d="M26.713 138.518C26.713 138.999 26.515 139.477 26.175 139.817 25.835 140.158 25.357 140.356 24.876 140.356 24.395 140.356 23.917 140.158 23.576 139.817 23.236 139.477 23.038 138.999 23.038 138.518 23.038 138.037 23.236 137.559 23.576 137.219 23.917 136.879 24.395 136.681 24.876 136.681 25.357 136.681 25.835 136.879 26.175 137.219 26.515 137.559 26.713 138.037 26.713 138.518"/>
<path transform="matrix(1,0,0,-1,0,792)" stroke-width="1" stroke-linecap="butt" stroke-miterlimit="10" stroke-linejoin="miter" fill="none" stroke="#000000" d=""/>
<text xml:space="preserve" transform="matrix(1 0 -0 1 0 792)" font-size="10.5" font-family="Times"><tspan y="-135.631" x="32.173 39.176504 42.673006 47.335004 51.997 54.916 57.835 63.085 68.335 70.96 73.879 79.129 82.048 86.71 90.2065 94.8685 98.953 101.872 104.791 110.041 115.291 117.916 125.497 130.159 135.409 139.4935 142.4125 145.33152 149.99352 152.61852 157.28052 162.53052 167.78052 170.40552 174.49002 179.74002 184.40203 187.32103 191.98303 194.90204 197.52704 205.69605 210.35805 215.60805 218.52706 223.18906 225.81406 230.47606 235.72606 240.97606 243.89507 248.55707 253.80707 256.72608">Creating interesting website and social media content.</tspan></text>
<path transform="matrix(1,0,0,-1,0,792)" d="M26.713 126.044C26.713 126.525 26.515 127.003 26.175 127.343 25.835 127.684 25.357 127.882 24.876 127.882 24.395 127.882 23.917 127.684 23.576 127.343 23.236 127.003 23.038 126.525 23.038 126.044 23.038 125.563 23.236 125.085 23.576 124.745 23.917 124.405 24.395 124.207 24.876 124.207 25.357 124.207 25.835 124.405 26.175 124.745 26.515 125.085 26.713 125.563 26.713 126.044"/>
<path transform="matrix(1,0,0,-1,0,792)" stroke-width="1" stroke-linecap="butt" stroke-miterlimit="10" stroke-linejoin="miter" fill="none" stroke="#000000" d=""/>
<text xml:space="preserve" transform="matrix(1 0 -0 1 0 792)" font-size="10.5" font-family="Times"><tspan y="-123.157" x="32.173 39.176504 43.8385 48.5005 53.7505 61.919504 66.581508 69.206508 73.86851 76.49351 80.57801 83.49701 88.15901 91.65551 95.15201 97.77701 103.02701 106.523509 109.148509 112.067508 117.317508 121.97951 124.60451 132.1855 139.189 146.19249 153.77349 156.39849 162.23648 169.81748 176.23297 183.81397 189.65196 192.27696 197.52696 202.77696 207.43897 210.93547 215.59748 218.51648 221.43549 226.68549 231.93549 236.59749 239.5165 242.1415 247.3915 250.3105 255.5605 258.4795 262.564 265.483 270.733 275.983 278.608 282.1045 287.3545 292.6045 297.8545 303.1045 306.60099 309.22599">Become a staff of the ORCA FOLKS operational division (2021). </tspan></text>
<path transform="matrix(1,0,0,-1,0,792)" d="M26.713 113.57C26.713 114.051 26.515 114.529 26.175 114.869 25.835 115.21 25.357 115.408 24.876 115.408 24.395 115.408 23.917 115.21 23.576 114.869 23.236 114.529 23.038 114.051 23.038 113.57 23.038 113.089 23.236 112.611 23.576 112.271 23.917 111.931 24.395 111.733 24.876 111.733 25.357 111.733 25.835 111.931 26.175 112.271 26.515 112.611 26.713 113.089 26.713 113.57"/>
<path transform="matrix(1,0,0,-1,0,792)" stroke-width="1" stroke-linecap="butt" stroke-miterlimit="10" stroke-linejoin="miter" fill="none" stroke="#000000" d=""/>
<text xml:space="preserve" transform="matrix(1 0 -0 1 0 792)" font-size="10.5" font-family="Times"><tspan y="-110.683" x="32.173 39.176504 43.8385 48.5005 53.1625 61.331499 65.9935 68.6185 72.703 75.622 80.284008 83.7805 87.277 89.902 95.152 98.6485 101.2735 104.1925 109.4425 114.1045 116.7295 121.9795 124.8985 129.5605 133.645 136.27 141.52 146.182 149.10102 153.76302 156.68202 159.60103 163.68553 166.31053 171.56053 176.81053 181.47254 184.96904 189.63105 192.55005 195.46906 200.71906 205.96906 210.63106 213.55007 216.17507 221.42507 224.34407 229.59407 232.51308 236.59758 239.51659 244.76659 250.01659 252.64159 256.1381 261.3881 266.6381 271.8881 277.1381 280.63459 283.25959">Became staff of the dies natalis operational division (2021). </tspan></text>
<path transform="matrix(1,0,0,-1,0,792)" d="M26.713 101.096C26.713 101.577 26.515 102.055 26.175 102.395 25.835 102.736 25.357 102.934 24.876 102.934 24.395 102.934 23.917 102.736 23.576 102.395 23.236 102.055 23.038 101.577 23.038 101.096 23.038 100.615 23.236 100.137 23.576 99.797 23.917 99.457 24.395 99.259 24.876 99.259 25.357 99.259 25.835 99.457 26.175 99.797 26.515 100.137 26.713 100.615 26.713 101.096"/>
<path transform="matrix(1,0,0,-1,0,792)" stroke-width="1" stroke-linecap="butt" stroke-miterlimit="10" stroke-linejoin="miter" fill="none" stroke="#000000" d=""/>
<text xml:space="preserve" transform="matrix(1 0 -0 1 0 792)" font-size="10.5" font-family="Times"><tspan y="-98.209" x="32.173 39.176504 43.8385 46.7575 52.0075 57.2575 59.8825 62.8015 68.0515 72.7135 75.3385 79.423007 82.342 87.004009 90.5005 93.997 96.622 101.872 105.3685 107.9935 110.9125 116.1625 120.8245 123.4495 128.6995 133.9495 138.6115 143.8615 152.0305 156.6925 161.9425 164.86151 169.52352 172.44252 175.36153 180.61153 185.86153 188.48653 193.73653 196.65554 201.90554 204.82454 208.90904 211.82805 217.07805 222.32805 224.95305 229.61505 232.53406 235.15906 238.07807 243.32807 247.99007 250.61507 257.61857 262.86857 271.03758 276.28758 281.53758 284.45658 289.11857 292.61506 295.24006 301.07807 305.74006 308.65907 313.32106 318.57106 323.23304 327.89503 330.52003 336.35804 339.27705 344.52705 349.77705 354.43904 359.68904 362.60804 365.23304 371.07106 375.73304 383.90205 386.82106 389.74006 394.99006 397.61506 403.45307 408.70307 412.19956 417.44956 425.61857 428.24357 433.49357 436.11857 443.69956 449.53758 457.11857 459.74357 463.24006 470.82106 476.65907 484.24006 491.82106 499.40205 502.02705 504.65205 512.23306 518.07107 525.65206 533.23306 537.3175 539.9425 542.5675 550.1485 555.9865 563.5675 571.1485 575.233 581.6485 585.145">Being the staff of the documentation division at the Computer Science Student Family Forum 3 UPN (UPNVY, UPNVJ, UPNVJT).</tspan></text>
<text xml:space="preserve" transform="matrix(1 0 -0 1 0 792)" font-size="10.5" font-family="Times" font-weight="bold"><tspan y="-175.34" x="14.173 21.754002 27.004002 35.750505 44.497007 50.335008 56.173009 59.092008 63.754007 69.004009 72.5005 75.4195 80.6695 86.5075 89.1325 94.3825 100.2205 106.058498 108.683498 112.768 118.605998 122.10249 127.35249 132.0145 140.761 146.011 149.5075 152.42652 157.67652 163.51451 166.13951 176.05152 180.71352 186.55152 189.47052 194.72052 197.34552 203.18352 206.68003 211.93003 215.42653">Communication and Information Media Staff</tspan></text>
<text xml:space="preserve" transform="matrix(1 0 -0 1 0 792)" font-size="10.5" font-family="Times" font-weight="bold"><tspan y="-175.34" x="544.749 552.33 557.58 562.83 568.08 573.33 579.168 584.418 589.08 592.57656">Yogyakarta</tspan></text>
<text xml:space="preserve" transform="matrix(1 0 -0 1 0 792)" font-size="10.5" font-family="Times" font-style="italic"><tspan y="-163.46" x="14.173 17.6695 22.9195 25.838501 31.088501 35.173 42.754 48.004 50.923 53.842 59.092 64.341999 66.966999 72.216999 76.879 80.9635 83.8825 88.5445 96.1255 100.21001 102.83501 108.08501 111.004009 116.254009 121.504009 126.16601 131.41602 134.33502 136.96002 143.37552 147.46002 151.54453 156.79453 161.45653 164.37554 169.62554 172.54454 175.46355 180.71355 185.96355 188.58855 196.16954 202.58504 209.58853 212.21353 218.62903 223.29103 226.21004 230.87204 234.95655 240.20655 245.45655 248.08155 253.91954 259.16957 264.41957 269.08155 274.33155 278.99354 284.24354 288.32804 291.24705">Information Systems Student Association UPN Veteran Yogyakarta</tspan></text>
<text xml:space="preserve" transform="matrix(1 0 -0 1 0 792)" font-size="10.5" font-family="Times"><tspan y="-163.46" x="545.831 551.081 556.331 561.581">2021</tspan></text>
<text xml:space="preserve" transform="matrix(1 0 -0 1 0 792)" font-size="12" font-family="Times"><tspan y="-163.46" x="566.831 569.831 573.82699"> - </tspan></text>
<text xml:space="preserve" transform="matrix(1 0 -0 1 0 792)" font-size="10.5" font-family="Times"><tspan y="-163.46" x="576.827 582.077 587.327 592.577">2022</tspan></text>
<g clip-path="url(#clip_8)">
</g>
</g>
<path transform="matrix(1,0,0,-1,0,792)" d="M14.173 14.173H597.82699V14.173H14.173Z" fill="#ffffff"/>
<g clip-path="url(#clip_9)">
<g clip-path="url(#clip_10)">
</g>
<g clip-path="url(#clip_11)">
</g>
<g clip-path="url(#clip_12)">
</g>
<g clip-path="url(#clip_13)">
</g>
</g>
</svg>
