<svg xmlns="http://www.w3.org/2000/svg" xmlns:xlink="http://www.w3.org/1999/xlink" version="1.1" width="612" height="792" viewBox="0 0 612 792">
<defs>
<clipPath id="clip_14">
<path transform="matrix(1,0,0,-1,0,792)" d="M14.173 14.173H597.82699V777.82699H14.173Z"/>
</clipPath>
<clipPath id="clip_15">
<path transform="matrix(1,0,0,-1,0,792)" d="M14.173 762.071V761.071H597.827V762.071 763.571H14.173"/>
</clipPath>
<clipPath id="clip_16">
<path transform="matrix(1,0,0,-1,0,792)" d="M14.173 696.893V695.893H597.827V696.893 698.393H14.173"/>
</clipPath>
<clipPath id="clip_17">
<path transform="matrix(1,0,0,-1,0,792)" d="M14.173 622.523H597.82699V622.523H14.173Z"/>
</clipPath>
</defs>
<path transform="matrix(1,0,0,-1,0,792)" d="M14.173 14.173H597.82699V777.82699H14.173Z" fill="#ffffff"/>
<path transform="matrix(1,0,0,-1,0,792)" d="M14.173 14.173H597.82699V777.82699H14.173Z" fill="#ffffff"/>
<g clip-path="url(#clip_14)">
<g clip-path="url(#clip_15)">
<path transform="matrix(1,0,0,-1,0,792)" stroke-width="1.5" stroke-linecap="butt" stroke-miterlimit="10" stroke-linejoin="miter" fill="none" stroke="#000000" d="M14.173 762.821H597.827"/>
</g>
<text xml:space="preserve" transform="matrix(1 0 -0 1 0 792)" font-size="12" font-family="Times" font-weight="bold"><tspan y="-766.422" x="14.173 22.837002 30.841004 39.505006 47.509008 52.177007 59.509008 64.17701 72.84101 81.50501 89.50901 94.17701 103.51301">CERTIFICATION</tspan></text>
<path transform="matrix(1,0,0,-1,0,792)" d="M26.713 751.979C26.713 752.46 26.515 752.938 26.175 753.278 25.835 753.619 25.357 753.817 24.876 753.817 24.395 753.817 23.917 753.619 23.576 753.278 23.236 752.938 23.038 752.46 23.038 751.979 23.038 751.498 23.236 751.02 23.576 750.68 23.917 750.34 24.395 750.142 24.876 750.142 25.357 750.142 25.835 750.34 26.175 750.68 26.515 751.02 26.713 751.498 26.713 751.979"/>
<path transform="matrix(1,0,0,-1,0,792)" stroke-width="1.5" stroke-linecap="butt" stroke-miterlimit="10" stroke-linejoin="miter" fill="none" stroke="#000000" d=""/>
<text xml:space="preserve" transform="matrix(1 0 -0 1 0 792)" font-size="10.5" font-family="Times"><tspan y="-749.092" x="32.173 38.011 41.5075 46.7575 52.0075 55.503999 60.165998 68.335 76.504 79.423 84.673 89.923 92.548 97.21 102.46 107.71 110.335 116.173 121.423 124.919498 127.83849 135.4195 140.0815 143.578 148.24 150.865 158.446 163.108 168.358 173.02 175.93901 181.18901 186.43901 194.60802 199.27002 204.52002">Programming and Software Development</tspan></text>
<text xml:space="preserve" transform="matrix(1 0 -0 1 0 792)" font-size="10.5" font-family="Times"><tspan y="-749.092" x="207.439 210.064">, </tspan></text>
<text xml:space="preserve" transform="matrix(1 0 -0 1 0 792)" font-size="10.5" font-family="Times"><tspan y="-749.092" x="212.689 220.26999 224.93199 227.851 230.77 236.02 241.27 245.932 248.85102 251.47602 257.31404 260.81053 266.06053 269.557 274.219 278.3035 282.388 285.307 290.557 295.807 300.469 303.388 306.013 313.0165 317.6785 321.175 324.094 327.013 330.5095 333.4285 338.09049 342.75248 345.67149 348.59049 353.84049 359.09049 361.71549 369.29649 374.54649 379.20848 384.45848 389.12046 394.37046 396.99546 400.49195 407.49546 415.07646 420.91447 426.75248">National Professional Certification Agency (BNSP)</tspan></text>
<text xml:space="preserve" transform="matrix(1 0 -0 1 0 792)" font-size="10.5" font-family="Times"><tspan y="-749.092" x="430.249 432.874">, </tspan></text>
<text xml:space="preserve" transform="matrix(1 0 -0 1 0 792)" font-size="10.5" font-family="Times"><tspan y="-749.092" x="435.499 443.08 448.33 456.499 461.749 466.41099">Number</tspan></text>
<text xml:space="preserve" transform="matrix(1 0 -0 1 0 792)" font-size="10.5" font-family="Times"><tspan y="-749.092" x="469.908 472.827">: </tspan></text>
<text xml:space="preserve" transform="matrix(1 0 -0 1 0 792)" font-size="10.5" font-family="Times"><tspan y="-749.092" x="475.452 480.702 485.952 491.202 496.452 501.702 506.952 512.202 517.452 522.702 527.952 533.202 538.452 543.702 548.952 554.202 559.452 564.702 569.952 575.202 580.452">620102513400354342022</tspan></text>
<text xml:space="preserve" transform="matrix(1 0 -0 1 0 792)" font-size="10.5" font-family="Times"><tspan y="-749.092" x="585.702">,</tspan></text>
<text xml:space="preserve" transform="matrix(1 0 -0 1 0 792)" font-size="10.5" font-family="Times"><tspan y="-736.618" x="32.173 37.423 42.673 47.923">2022</tspan></text>
<path transform="matrix(1,0,0,-1,0,792)" d="M26.713 727.031C26.713 727.512 26.515 727.99 26.175 728.33 25.835 728.671 25.357 728.869 24.876 728.869 24.395 728.869 23.917 728.671 23.576 728.33 23.236 727.99 23.038 727.512 23.038 727.031 23.038 726.55 23.236 726.072 23.576 725.732 23.917 725.392 24.395 725.194 24.876 725.194 25.357 725.194 25.835 725.392 26.175 725.732 26.515 726.072 26.713 726.55 26.713 727.031"/>
<path transform="matrix(1,0,0,-1,0,792)" stroke-width="1.5" stroke-linecap="butt" stroke-miterlimit="10" stroke-linejoin="miter" fill="none" stroke="#000000" d=""/>
<text xml:space="preserve" transform="matrix(1 0 -0 1 0 792)" font-size="10.5" font-family="Times"><tspan y="-724.144" x="32.173 35.669504 40.919504 45.5815 49.078004 53.74 58.402 62.4865 67.1485 69.7735 75.611499 79.107997 84.357997 89.607997 94.857997 99.52 102.438999 105.357997 110.607997 113.52699 116.44599 121.69599 124.32099 131.902 134.821 137.74 142.99 145.615 154.94951 157.86852 162.53052 166.02703 171.27703 175.36153 180.61153 184.10803 187.02704 189.65204 196.06754 201.31754 205.97954 210.64154">Increase Productivity with Microsoft Excel</tspan></text>
<text xml:space="preserve" transform="matrix(1 0 -0 1 0 792)" font-size="10.5" font-family="Times"><tspan y="-724.144" x="213.561 216.186">, </tspan></text>
<text xml:space="preserve" transform="matrix(1 0 -0 1 0 792)" font-size="10.5" font-family="Times"><tspan y="-724.144" x="218.811 224.649 229.899 232.81801 235.73702 238.65602 241.28102 248.86202 253.52402 258.186 263.436 268.098 276.267 281.517 284.142 289.392 294.642 297.267 304.2705 309.5205 314.1825 319.4325 324.6825 329.9325 335.1825 338.679 343.929 346.554 350.05049 355.8885 359.38499 364.04698 369.29698 373.95896 377.45545 380.37446 385.03645">Skill Academy by Ruangguru (Prakerja)</tspan></text>
<text xml:space="preserve" transform="matrix(1 0 -0 1 0 792)" font-size="10.5" font-family="Times"><tspan y="-724.144" x="388.533 391.158">, </tspan></text>
<text xml:space="preserve" transform="matrix(1 0 -0 1 0 792)" font-size="10.5" font-family="Times"><tspan y="-724.144" x="393.783 401.36399 406.61399 414.783 420.033 424.69499">Number</tspan></text>
<text xml:space="preserve" transform="matrix(1 0 -0 1 0 792)" font-size="10.5" font-family="Times"><tspan y="-724.144" x="428.191 431.11003">: </tspan></text>
<text xml:space="preserve" transform="matrix(1 0 -0 1 0 792)" font-size="10.5" font-family="Times"><tspan y="-724.144" x="433.735 438.985 446.56599 454.14698 459.39698 464.64698 472.22798 479.80897 485.05897 492.63996 500.22096 505.47096 512.4744 518.88998">2DD13NX2HG1BT1</tspan></text>
<text xml:space="preserve" transform="matrix(1 0 -0 1 0 792)" font-size="10.5" font-family="Times"><tspan y="-724.144" x="524.14 526.765">, </tspan></text>
<text xml:space="preserve" transform="matrix(1 0 -0 1 0 792)" font-size="10.5" font-family="Times"><tspan y="-724.144" x="529.39 534.64 539.89 545.14">2021</tspan></text>
<g clip-path="url(#clip_16)">
<path transform="matrix(1,0,0,-1,0,792)" stroke-width="1.5" stroke-linecap="butt" stroke-miterlimit="10" stroke-linejoin="miter" fill="none" stroke="#000000" d="M14.173 697.643H597.827"/>
</g>
<text xml:space="preserve" transform="matrix(1 0 -0 1 0 792)" font-size="12" font-family="Times" font-weight="bold"><tspan y="-701.244" x="14.173 20.845002 30.181002 34.849004 42.853006">SKILL</tspan></text>
<path transform="matrix(1,0,0,-1,0,792)" d="M26.713 686.801C26.713 687.282 26.515 687.76 26.175 688.1 25.835 688.441 25.357 688.639 24.876 688.639 24.395 688.639 23.917 688.441 23.576 688.1 23.236 687.76 23.038 687.282 23.038 686.801 23.038 686.32 23.236 685.842 23.576 685.502 23.917 685.162 24.395 684.964 24.876 684.964 25.357 684.964 25.835 685.162 26.175 685.502 26.515 685.842 26.713 686.32 26.713 686.801"/>
<path transform="matrix(1,0,0,-1,0,792)" stroke-width="1.5" stroke-linecap="butt" stroke-miterlimit="10" stroke-linejoin="miter" fill="none" stroke="#000000" d=""/>
<text xml:space="preserve" transform="matrix(1 0 -0 1 0 792)" font-size="10.5" font-family="Times" font-weight="bold"><tspan y="-683.914" x="32.173 40.342004 45.592004 50.254 56.092004 58.717004 64.555 70.393 73.312 76.230998 79.149997 82.64649">Hard Skill: </tspan></text>
<text xml:space="preserve" transform="matrix(1 0 -0 1 0 792)" font-size="10.5" font-family="Times"><tspan y="-683.914" x="87.897 93.735 98.985 102.4815 105.4005 112.9815 117.6435 121.14 125.802 128.427 136.008 141.258 145.92 148.839 154.089 158.17351 161.09252 165.17702 167.80202 170.42702 173.92353 180.33902 182.96402 188.80202 194.05202 199.30202 204.55202 209.80202 213.29853 216.21753 218.84253 221.46753 231.37953 236.04154 241.29154 243.91654 251.49753 256.15953 261.40953 266.0715 268.9905 274.2405 279.4905 287.65953 292.3215 297.5715 300.4905 303.1155 305.7405 311.57853 316.82853 320.325 323.24403 330.825 335.487 338.9835 343.64549 346.27049 353.85148 358.51347 363.76347 368.42546 371.34446 376.59446 381.84446 390.01347 394.67546 399.92546 402.84446 405.46946 411.88496 414.80397 418.30046 422.96244 427.62443 432.87443 437.5364 440.4554 445.1174 447.7424 451.2389 457.0769 464.6579 471.0734 478.0769 481.5734 484.1984 486.8234 492.6614 496.1579 501.4079 506.6579 510.1544 514.8164 522.9854 531.1544 534.0734 539.3234 544.5734 547.1984 550.69497 556.53298 564.11398 569.95199 572.57699 575.20199 582.20547 588.04348 593.8815">Software Analysis, IT Support, Web Development, Software Development Lifecycle (SDLC), Programming (PHP, CSS,</tspan></text>
<text xml:space="preserve" transform="matrix(1 0 -0 1 0 792)" font-size="10.5" font-family="Times"><tspan y="-671.44" x="32.173 39.176504 44.426504 49.676504 52.5955 56.68 59.599 63.095499 67.7575 73.0075 75.6325 78.2575 82.342 87.004009 92.254009 96.91601 101.00051 105.66251 109.15901 112.07801 117.32801 120.24701 122.87201 125.49701 132.5005 137.1625 141.82451 146.48651 149.40552 153.49002 159.32802 161.95302 164.57802 170.99352 175.65552 179.15203 183.81403 189.06403 193.72603 196.64504 199.27004 201.89504 208.89853 214.82053 220.74253">Bootstrap, Javascript, ReactJS, Laravel, C++)</tspan></text>
<path transform="matrix(1,0,0,-1,0,792)" d="M26.713 661.853C26.713 662.334 26.515 662.812 26.175 663.152 25.835 663.493 25.357 663.691 24.876 663.691 24.395 663.691 23.917 663.493 23.576 663.152 23.236 662.812 23.038 662.334 23.038 661.853 23.038 661.372 23.236 660.894 23.576 660.554 23.917 660.214 24.395 660.016 24.876 660.016 25.357 660.016 25.835 660.214 26.175 660.554 26.515 660.894 26.713 661.372 26.713 661.853"/>
<path transform="matrix(1,0,0,-1,0,792)" stroke-width="1.5" stroke-linecap="butt" stroke-miterlimit="10" stroke-linejoin="miter" fill="none" stroke="#000000" d=""/>
<text xml:space="preserve" transform="matrix(1 0 -0 1 0 792)" font-size="10.5" font-family="Times" font-weight="bold"><tspan y="-658.966" x="32.173 38.011 43.261 46.7575 50.253999 52.878999 58.717 64.555 67.474 70.393 73.312 76.808498">Soft Skill: </tspan></text>
<text xml:space="preserve" transform="matrix(1 0 -0 1 0 792)" font-size="10.5" font-family="Times"><tspan y="-658.966" x="82.059 89.0625 94.3125 102.4815 110.6505 115.9005 121.1505 124.069499 128.73149 133.3935 136.3125 139.2315 144.4815 149.7315 152.3565 154.9815 161.397 166.059 170.72101 178.89002 186.47101 191.72101 195.21752 200.46752 203.09252 205.71752 212.13301 216.79502 221.45702 226.70702 231.36902 234.86553 238.95003 244.20003 247.11904 252.36904 254.99404 257.61903 260.53804 265.78804 271.03804 276.28804 281.53804 286.2 289.11903 292.03804 297.28804 301.95 304.575 307.2 315.36903 320.61903 323.53804 326.45704 331.70704 336.36903 339.28804 343.95">Communication, Teamwork, Leadership, innovative, motivated</tspan></text>
<path transform="matrix(1,0,0,-1,0,792)" d="M26.713 649.379C26.713 649.86 26.515 650.338 26.175 650.678 25.835 651.019 25.357 651.217 24.876 651.217 24.395 651.217 23.917 651.019 23.576 650.678 23.236 650.338 23.038 649.86 23.038 649.379 23.038 648.898 23.236 648.42 23.576 648.08 23.917 647.74 24.395 647.542 24.876 647.542 25.357 647.542 25.835 647.74 26.175 648.08 26.515 648.42 26.713 648.898 26.713 649.379"/>
<path transform="matrix(1,0,0,-1,0,792)" stroke-width="1.5" stroke-linecap="butt" stroke-miterlimit="10" stroke-linejoin="miter" fill="none" stroke="#000000" d=""/>
<text xml:space="preserve" transform="matrix(1 0 -0 1 0 792)" font-size="10.5" font-family="Times" font-weight="bold"><tspan y="-646.492" x="32.173 38.011 43.261 46.7575 50.253999 57.835 63.085 67.747 72.409008 75.034008 80.872 86.71 89.629 92.548 95.466999 98.96349">Software Skill: </tspan></text>
<text xml:space="preserve" transform="matrix(1 0 -0 1 0 792)" font-size="10.5" font-family="Times"><tspan y="-646.492" x="104.214 114.126 118.788 124.038 126.663 134.244 138.906 142.99051 145.90952 151.15952 156.40952 159.03452 162.53102 168.36902 171.28803 176.53803 184.70703 189.36904 191.99404 194.61904 202.20003 205.69654 210.35854 217.93953 220.56453 223.48354 228.73354 231.35854 233.98354 243.31804 249.15604 251.78104 259.36204 262.28105 266.36555 269.28456 274.53456 278.03105 280.65605 283.28105 290.86204 295.52403 298.44303 303.105 308.355 313.017 317.1015 321.7635 324.3885 327.88499 337.21949 342.46949 348.3075 355.8885 362.304 364.929 367.554 373.392 380.973 386.811 389.436 398.7705 404.0205 411.6015 416.8515 425.0205 427.9395 433.1895 435.8145 438.4395 444.27754 449.52754 453.61204 458.86204 462.35853 467.0205 472.85853 480.4395 486.855 489.48 492.105 498.5205 503.7705 508.4325 513.0945 516.0135 519.51 522.135 524.76 532.341 537.591 542.841 545.76 548.679 553.341 558.003 560.922 563.841 569.091">Web Design (Figma, Draw.io, MS.Visio), Database (MySQL, PHP MyAdmin, PosgreSQL, Excel), Application</tspan></text>
<text xml:space="preserve" transform="matrix(1 0 -0 1 0 792)" font-size="10.5" font-family="Times"><tspan y="-634.018" x="32.173 35.669504 43.8385 49.0885 52.0075 56.6695 64.8385 69.5005 74.7505 77.6695 82.331508 85.2505 88.1695 93.4195 98.6695 101.2945 103.9195 110.335 115.585 118.504 121.423 124.341999 129.592 134.842 137.467 140.9635 148.5445 153.7945 159.0445 164.2945 168.9565 171.5815 177.4195 182.6695 187.9195 190.8385 196.0885 200.173 205.423 210.673 215.923 218.548 221.173 228.1765 232.8385 238.0885 243.3385 248.0005 250.6255 253.2505 259.0885 262.0075 264.9265 273.09553 278.34553 281.842 286.504 289.129 291.754 298.7575 303.4195 308.6695 313.33149 318.58149 321.5005 324.99699">Implementation, Editing (Adobe Photoshop, Canva, Filmora, Capcut).</tspan></text>
<g clip-path="url(#clip_17)">
</g>
</g>
</svg>
